<svg xmlns="http://www.w3.org/2000/svg" viewBox="0 0 24 24"><path d="m10 3.4.5-1h3l.5 1a2 2 0 0 0 2.6 1l1-.4 2.1 2.1-.4 1a2 2 0 0 0 1 2.6l1 .5v3l-1 .5a2 2 0 0 0-1 2.6l.4 1-2.1 2.1-1-.4a2 2 0 0 0-2.6 1l-.5 1h-3l-.5-1a2 2 0 0 0-2.6-1l-1 .4-2.1-2.1.4-1a2 2 0 0 0-1-2.6l-1-.5v-3l1-.5a2 2 0 0 0 1-2.6l-.4-1 2.1-2.1 1 .4a2 2 0 0 0 2.6-1Z" fill="#e9e4d7" stroke="#718168" stroke-width="1.3" stroke-linejoin="round"/><circle cx="12" cy="11.7" r="3.2" fill="#e7d8c9" stroke="#b97557" stroke-width="1.5"/></svg>
